<mxfile host="app.diagrams.net" agent="Mozilla/5.0 (Windows NT 10.0; Win64; x64) AppleWebKit/537.36 (KHTML, like Gecko) Chrome/131.0.0.0 Safari/537.36" version="25.0.1" pages="2">
  <diagram name="v.1.0" id="U3Ethrib_to-rewBgai2">
    <mxGraphModel dx="2091" dy="1307" grid="0" gridSize="10" guides="1" tooltips="1" connect="1" arrows="1" fold="1" page="0" pageScale="1" pageWidth="827" pageHeight="1169" math="0" shadow="0">
      <root>
        <mxCell id="0" />
        <mxCell id="1" parent="0" />
        <mxCell id="orHUfnyb1fv-9ykqrMK_-23" style="rounded=0;orthogonalLoop=1;jettySize=auto;html=1;exitX=0.5;exitY=0.5;exitDx=0;exitDy=0;exitPerimeter=0;entryX=1;entryY=0.5;entryDx=0;entryDy=0;endArrow=none;endFill=0;" parent="1" source="orHUfnyb1fv-9ykqrMK_-1" target="orHUfnyb1fv-9ykqrMK_-21" edge="1">
          <mxGeometry relative="1" as="geometry" />
        </mxCell>
        <mxCell id="orHUfnyb1fv-9ykqrMK_-46" style="shape=connector;rounded=0;orthogonalLoop=1;jettySize=auto;html=1;exitX=0.5;exitY=0.5;exitDx=0;exitDy=0;exitPerimeter=0;entryX=1;entryY=0.5;entryDx=0;entryDy=0;labelBackgroundColor=default;strokeColor=default;align=center;verticalAlign=middle;fontFamily=Helvetica;fontSize=11;fontColor=default;endArrow=none;endFill=0;" parent="1" source="orHUfnyb1fv-9ykqrMK_-1" target="orHUfnyb1fv-9ykqrMK_-45" edge="1">
          <mxGeometry relative="1" as="geometry" />
        </mxCell>
        <mxCell id="orHUfnyb1fv-9ykqrMK_-1" value="Amministratore" style="shape=umlActor;verticalLabelPosition=bottom;verticalAlign=top;html=1;" parent="1" vertex="1">
          <mxGeometry x="601" y="618" width="30" height="60" as="geometry" />
        </mxCell>
        <mxCell id="orHUfnyb1fv-9ykqrMK_-39" style="shape=connector;rounded=0;orthogonalLoop=1;jettySize=auto;html=1;exitX=0.5;exitY=0.5;exitDx=0;exitDy=0;exitPerimeter=0;entryX=0;entryY=0.5;entryDx=0;entryDy=0;labelBackgroundColor=default;strokeColor=default;align=center;verticalAlign=middle;fontFamily=Helvetica;fontSize=11;fontColor=default;endArrow=none;endFill=0;" parent="1" source="orHUfnyb1fv-9ykqrMK_-2" target="orHUfnyb1fv-9ykqrMK_-10" edge="1">
          <mxGeometry relative="1" as="geometry" />
        </mxCell>
        <mxCell id="orHUfnyb1fv-9ykqrMK_-49" style="shape=connector;rounded=0;orthogonalLoop=1;jettySize=auto;html=1;exitX=0.5;exitY=0.5;exitDx=0;exitDy=0;exitPerimeter=0;entryX=0;entryY=0.5;entryDx=0;entryDy=0;labelBackgroundColor=default;strokeColor=default;align=center;verticalAlign=middle;fontFamily=Helvetica;fontSize=11;fontColor=default;endArrow=none;endFill=0;" parent="1" source="orHUfnyb1fv-9ykqrMK_-2" target="orHUfnyb1fv-9ykqrMK_-47" edge="1">
          <mxGeometry relative="1" as="geometry" />
        </mxCell>
        <mxCell id="orHUfnyb1fv-9ykqrMK_-50" style="shape=connector;rounded=0;orthogonalLoop=1;jettySize=auto;html=1;exitX=0.5;exitY=0.5;exitDx=0;exitDy=0;exitPerimeter=0;entryX=0;entryY=0.5;entryDx=0;entryDy=0;labelBackgroundColor=default;strokeColor=default;align=center;verticalAlign=middle;fontFamily=Helvetica;fontSize=11;fontColor=default;endArrow=none;endFill=0;" parent="1" source="orHUfnyb1fv-9ykqrMK_-2" target="orHUfnyb1fv-9ykqrMK_-48" edge="1">
          <mxGeometry relative="1" as="geometry" />
        </mxCell>
        <mxCell id="orHUfnyb1fv-9ykqrMK_-76" style="shape=connector;rounded=0;orthogonalLoop=1;jettySize=auto;html=1;labelBackgroundColor=default;strokeColor=default;align=center;verticalAlign=middle;fontFamily=Helvetica;fontSize=11;fontColor=default;endArrow=block;endFill=0;endSize=12;exitX=0.5;exitY=0;exitDx=0;exitDy=0;exitPerimeter=0;" parent="1" source="orHUfnyb1fv-9ykqrMK_-2" edge="1">
          <mxGeometry relative="1" as="geometry">
            <mxPoint x="751" y="18.571428571428555" as="targetPoint" />
          </mxGeometry>
        </mxCell>
        <mxCell id="orHUfnyb1fv-9ykqrMK_-2" value="Utente Registrato" style="shape=umlActor;verticalLabelPosition=bottom;verticalAlign=top;html=1;" parent="1" vertex="1">
          <mxGeometry x="900" y="255.25" width="30" height="60" as="geometry" />
        </mxCell>
        <mxCell id="orHUfnyb1fv-9ykqrMK_-26" style="shape=connector;rounded=0;orthogonalLoop=1;jettySize=auto;html=1;exitX=0.5;exitY=0.5;exitDx=0;exitDy=0;exitPerimeter=0;entryX=1;entryY=0;entryDx=0;entryDy=0;labelBackgroundColor=default;strokeColor=default;align=center;verticalAlign=middle;fontFamily=Helvetica;fontSize=11;fontColor=default;endArrow=none;endFill=0;" parent="1" source="orHUfnyb1fv-9ykqrMK_-3" target="orHUfnyb1fv-9ykqrMK_-11" edge="1">
          <mxGeometry relative="1" as="geometry" />
        </mxCell>
        <mxCell id="orHUfnyb1fv-9ykqrMK_-27" style="shape=connector;rounded=0;orthogonalLoop=1;jettySize=auto;html=1;exitX=0.5;exitY=0.5;exitDx=0;exitDy=0;exitPerimeter=0;labelBackgroundColor=default;strokeColor=default;align=center;verticalAlign=middle;fontFamily=Helvetica;fontSize=11;fontColor=default;endArrow=none;endFill=0;" parent="1" source="orHUfnyb1fv-9ykqrMK_-3" target="orHUfnyb1fv-9ykqrMK_-12" edge="1">
          <mxGeometry relative="1" as="geometry" />
        </mxCell>
        <mxCell id="orHUfnyb1fv-9ykqrMK_-3" value="Agente Immobilare" style="shape=umlActor;verticalLabelPosition=bottom;verticalAlign=top;html=1;" parent="1" vertex="1">
          <mxGeometry x="601" y="259" width="30" height="60" as="geometry" />
        </mxCell>
        <mxCell id="orHUfnyb1fv-9ykqrMK_-24" style="edgeStyle=orthogonalEdgeStyle;rounded=0;orthogonalLoop=1;jettySize=auto;html=1;exitX=0.5;exitY=0.5;exitDx=0;exitDy=0;exitPerimeter=0;entryX=1;entryY=0.5;entryDx=0;entryDy=0;endArrow=none;endFill=0;" parent="1" source="orHUfnyb1fv-9ykqrMK_-4" target="orHUfnyb1fv-9ykqrMK_-5" edge="1">
          <mxGeometry relative="1" as="geometry" />
        </mxCell>
        <mxCell id="orHUfnyb1fv-9ykqrMK_-29" style="edgeStyle=orthogonalEdgeStyle;shape=connector;rounded=0;orthogonalLoop=1;jettySize=auto;html=1;exitX=0.5;exitY=0;exitDx=0;exitDy=0;exitPerimeter=0;labelBackgroundColor=default;strokeColor=default;align=center;verticalAlign=middle;fontFamily=Helvetica;fontSize=11;fontColor=default;endArrow=block;endFill=0;endSize=12;" parent="1" source="orHUfnyb1fv-9ykqrMK_-4" edge="1">
          <mxGeometry relative="1" as="geometry">
            <mxPoint x="616" y="341" as="targetPoint" />
          </mxGeometry>
        </mxCell>
        <mxCell id="orHUfnyb1fv-9ykqrMK_-4" value="Gestore Immobilare" style="shape=umlActor;verticalLabelPosition=bottom;verticalAlign=top;html=1;" parent="1" vertex="1">
          <mxGeometry x="601" y="434" width="30" height="60" as="geometry" />
        </mxCell>
        <mxCell id="orHUfnyb1fv-9ykqrMK_-5" value="Registra account&lt;br&gt;agente immobilare" style="ellipse;html=1;whiteSpace=wrap;" parent="1" vertex="1">
          <mxGeometry x="343" y="441" width="132" height="46" as="geometry" />
        </mxCell>
        <mxCell id="orHUfnyb1fv-9ykqrMK_-10" value="Propone Offerta per Immobile" style="ellipse;html=1;whiteSpace=wrap;" parent="1" vertex="1">
          <mxGeometry x="1122" y="295" width="132" height="46" as="geometry" />
        </mxCell>
        <mxCell id="orHUfnyb1fv-9ykqrMK_-11" value="Aggiunge Inserzione&lt;br&gt;Immobile" style="ellipse;html=1;whiteSpace=wrap;" parent="1" vertex="1">
          <mxGeometry x="325" y="329.25" width="132" height="46" as="geometry" />
        </mxCell>
        <mxCell id="orHUfnyb1fv-9ykqrMK_-12" value="Gestisce Offerte" style="ellipse;html=1;whiteSpace=wrap;" parent="1" vertex="1">
          <mxGeometry x="322" y="200" width="132" height="46" as="geometry" />
        </mxCell>
        <mxCell id="orHUfnyb1fv-9ykqrMK_-21" value="Registra account&lt;br&gt;gestione immobilare" style="ellipse;html=1;whiteSpace=wrap;" parent="1" vertex="1">
          <mxGeometry x="346" y="591" width="132" height="46" as="geometry" />
        </mxCell>
        <mxCell id="orHUfnyb1fv-9ykqrMK_-31" style="edgeStyle=orthogonalEdgeStyle;shape=connector;rounded=0;orthogonalLoop=1;jettySize=auto;html=1;exitX=0.5;exitY=0;exitDx=0;exitDy=0;exitPerimeter=0;labelBackgroundColor=default;strokeColor=default;align=center;verticalAlign=middle;fontFamily=Helvetica;fontSize=11;fontColor=default;endArrow=block;endFill=0;endSize=12;" parent="1" edge="1">
          <mxGeometry relative="1" as="geometry">
            <mxPoint x="615.66" y="618" as="sourcePoint" />
            <mxPoint x="615.66" y="517" as="targetPoint" />
          </mxGeometry>
        </mxCell>
        <mxCell id="orHUfnyb1fv-9ykqrMK_-45" value="Cambia password" style="ellipse;html=1;whiteSpace=wrap;" parent="1" vertex="1">
          <mxGeometry x="346" y="649" width="132" height="46" as="geometry" />
        </mxCell>
        <mxCell id="orHUfnyb1fv-9ykqrMK_-47" value="Visualizza Profilo" style="ellipse;html=1;whiteSpace=wrap;" parent="1" vertex="1">
          <mxGeometry x="1122" y="184" width="132" height="46" as="geometry" />
        </mxCell>
        <mxCell id="orHUfnyb1fv-9ykqrMK_-48" value="Modifca Profilo" style="ellipse;html=1;whiteSpace=wrap;" parent="1" vertex="1">
          <mxGeometry x="1122" y="240.75" width="132" height="46" as="geometry" />
        </mxCell>
        <mxCell id="orHUfnyb1fv-9ykqrMK_-53" value="Geoapify" style="shape=umlActor;verticalLabelPosition=bottom;verticalAlign=top;html=1;" parent="1" vertex="1">
          <mxGeometry x="219" y="322.25" width="30" height="60" as="geometry" />
        </mxCell>
        <mxCell id="orHUfnyb1fv-9ykqrMK_-54" style="edgeStyle=orthogonalEdgeStyle;shape=connector;rounded=0;orthogonalLoop=1;jettySize=auto;html=1;exitX=0;exitY=0.5;exitDx=0;exitDy=0;entryX=0.5;entryY=0.5;entryDx=0;entryDy=0;entryPerimeter=0;labelBackgroundColor=default;strokeColor=default;align=center;verticalAlign=middle;fontFamily=Helvetica;fontSize=11;fontColor=default;endArrow=none;endFill=0;" parent="1" source="orHUfnyb1fv-9ykqrMK_-11" target="orHUfnyb1fv-9ykqrMK_-53" edge="1">
          <mxGeometry relative="1" as="geometry" />
        </mxCell>
        <mxCell id="orHUfnyb1fv-9ykqrMK_-62" value="Ricerca Immobili" style="ellipse;html=1;whiteSpace=wrap;" parent="1" vertex="1">
          <mxGeometry x="941" y="-60" width="132" height="46" as="geometry" />
        </mxCell>
        <mxCell id="orHUfnyb1fv-9ykqrMK_-63" value="Visualizza Immobili" style="ellipse;html=1;whiteSpace=wrap;" parent="1" vertex="1">
          <mxGeometry x="939" y="-7" width="132" height="46" as="geometry" />
        </mxCell>
        <mxCell id="orHUfnyb1fv-9ykqrMK_-73" style="shape=connector;rounded=0;orthogonalLoop=1;jettySize=auto;html=1;exitX=0.5;exitY=0.5;exitDx=0;exitDy=0;exitPerimeter=0;entryX=0;entryY=0.5;entryDx=0;entryDy=0;labelBackgroundColor=default;strokeColor=default;align=center;verticalAlign=middle;fontFamily=Helvetica;fontSize=11;fontColor=default;endArrow=none;endFill=0;" parent="1" source="orHUfnyb1fv-9ykqrMK_-64" target="orHUfnyb1fv-9ykqrMK_-65" edge="1">
          <mxGeometry relative="1" as="geometry" />
        </mxCell>
        <mxCell id="orHUfnyb1fv-9ykqrMK_-74" style="shape=connector;rounded=0;orthogonalLoop=1;jettySize=auto;html=1;exitX=0.5;exitY=0.5;exitDx=0;exitDy=0;exitPerimeter=0;entryX=0;entryY=0.5;entryDx=0;entryDy=0;labelBackgroundColor=default;strokeColor=default;align=center;verticalAlign=middle;fontFamily=Helvetica;fontSize=11;fontColor=default;endArrow=none;endFill=0;edgeStyle=orthogonalEdgeStyle;" parent="1" source="orHUfnyb1fv-9ykqrMK_-64" target="orHUfnyb1fv-9ykqrMK_-62" edge="1">
          <mxGeometry relative="1" as="geometry" />
        </mxCell>
        <mxCell id="orHUfnyb1fv-9ykqrMK_-75" style="shape=connector;rounded=0;orthogonalLoop=1;jettySize=auto;html=1;exitX=0.5;exitY=0.5;exitDx=0;exitDy=0;exitPerimeter=0;labelBackgroundColor=default;strokeColor=default;align=center;verticalAlign=middle;fontFamily=Helvetica;fontSize=11;fontColor=default;endArrow=none;endFill=0;" parent="1" source="orHUfnyb1fv-9ykqrMK_-64" target="orHUfnyb1fv-9ykqrMK_-63" edge="1">
          <mxGeometry relative="1" as="geometry" />
        </mxCell>
        <mxCell id="orHUfnyb1fv-9ykqrMK_-64" value="Utente Non Registrato" style="shape=umlActor;verticalLabelPosition=bottom;verticalAlign=top;html=1;" parent="1" vertex="1">
          <mxGeometry x="736" y="-67" width="30" height="60" as="geometry" />
        </mxCell>
        <mxCell id="orHUfnyb1fv-9ykqrMK_-65" value="Effettua Autenticazione" style="ellipse;html=1;whiteSpace=wrap;" parent="1" vertex="1">
          <mxGeometry x="939" y="-115.5" width="132" height="46" as="geometry" />
        </mxCell>
        <mxCell id="orHUfnyb1fv-9ykqrMK_-71" style="edgeStyle=orthogonalEdgeStyle;shape=connector;rounded=0;orthogonalLoop=1;jettySize=auto;html=1;exitX=0;exitY=0.5;exitDx=0;exitDy=0;entryX=1;entryY=0.5;entryDx=0;entryDy=0;labelBackgroundColor=default;strokeColor=default;align=center;verticalAlign=middle;fontFamily=Helvetica;fontSize=11;fontColor=default;endArrow=block;endFill=0;endSize=12;" parent="1" source="orHUfnyb1fv-9ykqrMK_-67" target="orHUfnyb1fv-9ykqrMK_-65" edge="1">
          <mxGeometry relative="1" as="geometry" />
        </mxCell>
        <mxCell id="orHUfnyb1fv-9ykqrMK_-67" value="Effettua Autenticazione&amp;nbsp;&lt;div&gt;con Google&lt;/div&gt;" style="ellipse;html=1;whiteSpace=wrap;" parent="1" vertex="1">
          <mxGeometry x="1152" y="-146.5" width="159" height="46" as="geometry" />
        </mxCell>
        <mxCell id="orHUfnyb1fv-9ykqrMK_-70" style="edgeStyle=orthogonalEdgeStyle;shape=connector;rounded=0;orthogonalLoop=1;jettySize=auto;html=1;exitX=0;exitY=0.5;exitDx=0;exitDy=0;entryX=1;entryY=0.5;entryDx=0;entryDy=0;labelBackgroundColor=default;strokeColor=default;align=center;verticalAlign=middle;fontFamily=Helvetica;fontSize=11;fontColor=default;endArrow=block;endFill=0;endSize=12;" parent="1" source="orHUfnyb1fv-9ykqrMK_-68" target="orHUfnyb1fv-9ykqrMK_-65" edge="1">
          <mxGeometry relative="1" as="geometry" />
        </mxCell>
        <mxCell id="orHUfnyb1fv-9ykqrMK_-68" value="Effettua Autenticazione&amp;nbsp;&lt;div&gt;con credenziali&lt;/div&gt;" style="ellipse;html=1;whiteSpace=wrap;" parent="1" vertex="1">
          <mxGeometry x="1152" y="-77.5" width="158" height="46" as="geometry" />
        </mxCell>
        <mxCell id="orHUfnyb1fv-9ykqrMK_-69" value="Google" style="shape=umlActor;verticalLabelPosition=bottom;verticalAlign=top;html=1;" parent="1" vertex="1">
          <mxGeometry x="1389" y="-153.5" width="30" height="60" as="geometry" />
        </mxCell>
        <mxCell id="orHUfnyb1fv-9ykqrMK_-72" style="edgeStyle=orthogonalEdgeStyle;shape=connector;rounded=0;orthogonalLoop=1;jettySize=auto;html=1;exitX=1;exitY=0.5;exitDx=0;exitDy=0;entryX=0.5;entryY=0.5;entryDx=0;entryDy=0;entryPerimeter=0;labelBackgroundColor=default;strokeColor=default;align=center;verticalAlign=middle;fontFamily=Helvetica;fontSize=11;fontColor=default;endArrow=none;endFill=0;" parent="1" source="orHUfnyb1fv-9ykqrMK_-67" target="orHUfnyb1fv-9ykqrMK_-69" edge="1">
          <mxGeometry relative="1" as="geometry" />
        </mxCell>
        <mxCell id="orHUfnyb1fv-9ykqrMK_-77" style="shape=connector;rounded=0;orthogonalLoop=1;jettySize=auto;html=1;labelBackgroundColor=default;strokeColor=default;align=center;verticalAlign=middle;fontFamily=Helvetica;fontSize=11;fontColor=default;endArrow=block;endFill=0;endSize=12;exitX=0.5;exitY=0;exitDx=0;exitDy=0;exitPerimeter=0;" parent="1" source="orHUfnyb1fv-9ykqrMK_-3" edge="1">
          <mxGeometry relative="1" as="geometry">
            <mxPoint x="742" y="17" as="targetPoint" />
          </mxGeometry>
        </mxCell>
        <mxCell id="LS56pDQFX7ovBf_QakEi-1" value="" style="endArrow=none;html=1;rounded=0;exitX=0.5;exitY=0.5;exitDx=0;exitDy=0;exitPerimeter=0;entryX=0;entryY=0.5;entryDx=0;entryDy=0;" parent="1" source="orHUfnyb1fv-9ykqrMK_-2" target="LS56pDQFX7ovBf_QakEi-2" edge="1">
          <mxGeometry width="50" height="50" relative="1" as="geometry">
            <mxPoint x="981" y="397" as="sourcePoint" />
            <mxPoint x="1127" y="375" as="targetPoint" />
          </mxGeometry>
        </mxCell>
        <mxCell id="LS56pDQFX7ovBf_QakEi-2" value="Visualizza storico&amp;nbsp;&lt;div&gt;offerte proposte&lt;/div&gt;" style="ellipse;html=1;whiteSpace=wrap;" parent="1" vertex="1">
          <mxGeometry x="1117" y="346" width="139" height="61" as="geometry" />
        </mxCell>
        <mxCell id="LS56pDQFX7ovBf_QakEi-7" value="Inserisce Offerte&amp;nbsp;&lt;div&gt;Esterne&lt;/div&gt;" style="ellipse;html=1;whiteSpace=wrap;" parent="1" vertex="1">
          <mxGeometry x="319" y="266" width="138" height="46" as="geometry" />
        </mxCell>
        <mxCell id="LS56pDQFX7ovBf_QakEi-8" value="" style="endArrow=none;html=1;rounded=0;exitX=1;exitY=0.5;exitDx=0;exitDy=0;entryX=0.5;entryY=0.5;entryDx=0;entryDy=0;entryPerimeter=0;" parent="1" source="LS56pDQFX7ovBf_QakEi-7" target="orHUfnyb1fv-9ykqrMK_-3" edge="1">
          <mxGeometry width="50" height="50" relative="1" as="geometry">
            <mxPoint x="500" y="344" as="sourcePoint" />
            <mxPoint x="550" y="294" as="targetPoint" />
          </mxGeometry>
        </mxCell>
        <mxCell id="LS56pDQFX7ovBf_QakEi-10" style="edgeStyle=orthogonalEdgeStyle;shape=connector;rounded=0;orthogonalLoop=1;jettySize=auto;html=1;exitX=1;exitY=0.5;exitDx=0;exitDy=0;entryX=0;entryY=0.5;entryDx=0;entryDy=0;labelBackgroundColor=default;strokeColor=default;align=center;verticalAlign=middle;fontFamily=Helvetica;fontSize=11;fontColor=default;endArrow=block;endFill=0;endSize=12;" parent="1" source="LS56pDQFX7ovBf_QakEi-11" target="orHUfnyb1fv-9ykqrMK_-12" edge="1">
          <mxGeometry relative="1" as="geometry">
            <mxPoint x="-56" y="302.25" as="targetPoint" />
          </mxGeometry>
        </mxCell>
        <mxCell id="LS56pDQFX7ovBf_QakEi-11" value="Accetta/Rifiuta Offerte" style="ellipse;html=1;whiteSpace=wrap;" parent="1" vertex="1">
          <mxGeometry x="25" y="170" width="159" height="46" as="geometry" />
        </mxCell>
        <mxCell id="LS56pDQFX7ovBf_QakEi-12" style="edgeStyle=orthogonalEdgeStyle;shape=connector;rounded=0;orthogonalLoop=1;jettySize=auto;html=1;exitX=1;exitY=0.5;exitDx=0;exitDy=0;entryX=0;entryY=0.5;entryDx=0;entryDy=0;labelBackgroundColor=default;strokeColor=default;align=center;verticalAlign=middle;fontFamily=Helvetica;fontSize=11;fontColor=default;endArrow=block;endFill=0;endSize=12;" parent="1" source="LS56pDQFX7ovBf_QakEi-13" target="orHUfnyb1fv-9ykqrMK_-12" edge="1">
          <mxGeometry relative="1" as="geometry">
            <mxPoint x="-56" y="302.25" as="targetPoint" />
          </mxGeometry>
        </mxCell>
        <mxCell id="LS56pDQFX7ovBf_QakEi-13" value="Visualizza Storico Offerte" style="ellipse;html=1;whiteSpace=wrap;" parent="1" vertex="1">
          <mxGeometry x="26" y="233" width="158" height="46" as="geometry" />
        </mxCell>
      </root>
    </mxGraphModel>
  </diagram>
  <diagram id="X8dwmm_3Igcw34j8R3av" name="v1.1">
    <mxGraphModel dx="1917" dy="2001" grid="1" gridSize="10" guides="1" tooltips="1" connect="1" arrows="1" fold="1" page="1" pageScale="1" pageWidth="827" pageHeight="1169" math="0" shadow="0">
      <root>
        <mxCell id="0" />
        <mxCell id="1" parent="0" />
        <mxCell id="fztXzovCt0iAuotydGNK-1" style="rounded=0;orthogonalLoop=1;jettySize=auto;html=1;exitX=0.5;exitY=0.5;exitDx=0;exitDy=0;exitPerimeter=0;entryX=1;entryY=0.5;entryDx=0;entryDy=0;endArrow=none;endFill=0;" edge="1" parent="1" source="fztXzovCt0iAuotydGNK-3" target="fztXzovCt0iAuotydGNK-19">
          <mxGeometry relative="1" as="geometry" />
        </mxCell>
        <mxCell id="fztXzovCt0iAuotydGNK-2" style="shape=connector;rounded=0;orthogonalLoop=1;jettySize=auto;html=1;exitX=0.5;exitY=0.5;exitDx=0;exitDy=0;exitPerimeter=0;entryX=1;entryY=0.5;entryDx=0;entryDy=0;labelBackgroundColor=default;strokeColor=default;align=center;verticalAlign=middle;fontFamily=Helvetica;fontSize=11;fontColor=default;endArrow=none;endFill=0;" edge="1" parent="1" source="fztXzovCt0iAuotydGNK-3" target="fztXzovCt0iAuotydGNK-21">
          <mxGeometry relative="1" as="geometry" />
        </mxCell>
        <mxCell id="fztXzovCt0iAuotydGNK-3" value="Amministratore" style="shape=umlActor;verticalLabelPosition=bottom;verticalAlign=top;html=1;" vertex="1" parent="1">
          <mxGeometry x="601" y="618" width="30" height="60" as="geometry" />
        </mxCell>
        <mxCell id="fztXzovCt0iAuotydGNK-4" style="shape=connector;rounded=0;orthogonalLoop=1;jettySize=auto;html=1;exitX=0.5;exitY=0.5;exitDx=0;exitDy=0;exitPerimeter=0;entryX=0;entryY=0.5;entryDx=0;entryDy=0;labelBackgroundColor=default;strokeColor=default;align=center;verticalAlign=middle;fontFamily=Helvetica;fontSize=11;fontColor=default;endArrow=none;endFill=0;" edge="1" parent="1" source="fztXzovCt0iAuotydGNK-48" target="fztXzovCt0iAuotydGNK-16">
          <mxGeometry relative="1" as="geometry" />
        </mxCell>
        <mxCell id="fztXzovCt0iAuotydGNK-5" style="shape=connector;rounded=0;orthogonalLoop=1;jettySize=auto;html=1;exitX=0.5;exitY=0.5;exitDx=0;exitDy=0;exitPerimeter=0;entryX=0;entryY=0.5;entryDx=0;entryDy=0;labelBackgroundColor=default;strokeColor=default;align=center;verticalAlign=middle;fontFamily=Helvetica;fontSize=11;fontColor=default;endArrow=none;endFill=0;" edge="1" parent="1" source="fztXzovCt0iAuotydGNK-8" target="fztXzovCt0iAuotydGNK-22">
          <mxGeometry relative="1" as="geometry" />
        </mxCell>
        <mxCell id="fztXzovCt0iAuotydGNK-6" style="shape=connector;rounded=0;orthogonalLoop=1;jettySize=auto;html=1;exitX=0.5;exitY=0.5;exitDx=0;exitDy=0;exitPerimeter=0;entryX=0;entryY=0.5;entryDx=0;entryDy=0;labelBackgroundColor=default;strokeColor=default;align=center;verticalAlign=middle;fontFamily=Helvetica;fontSize=11;fontColor=default;endArrow=none;endFill=0;" edge="1" parent="1" source="fztXzovCt0iAuotydGNK-8" target="fztXzovCt0iAuotydGNK-23">
          <mxGeometry relative="1" as="geometry" />
        </mxCell>
        <mxCell id="fztXzovCt0iAuotydGNK-7" style="shape=connector;rounded=0;orthogonalLoop=1;jettySize=auto;html=1;labelBackgroundColor=default;strokeColor=default;align=center;verticalAlign=middle;fontFamily=Helvetica;fontSize=11;fontColor=default;endArrow=block;endFill=0;endSize=12;exitX=0.5;exitY=0;exitDx=0;exitDy=0;exitPerimeter=0;" edge="1" parent="1" source="fztXzovCt0iAuotydGNK-48">
          <mxGeometry relative="1" as="geometry">
            <mxPoint x="885" y="223.38" as="targetPoint" />
            <mxPoint x="739" y="529.38" as="sourcePoint" />
          </mxGeometry>
        </mxCell>
        <mxCell id="fztXzovCt0iAuotydGNK-8" value="Utente Registrato" style="shape=umlActor;verticalLabelPosition=bottom;verticalAlign=top;html=1;" vertex="1" parent="1">
          <mxGeometry x="601" y="-43" width="30" height="60" as="geometry" />
        </mxCell>
        <mxCell id="fztXzovCt0iAuotydGNK-9" style="shape=connector;rounded=0;orthogonalLoop=1;jettySize=auto;html=1;exitX=0.5;exitY=0.5;exitDx=0;exitDy=0;exitPerimeter=0;entryX=1;entryY=0;entryDx=0;entryDy=0;labelBackgroundColor=default;strokeColor=default;align=center;verticalAlign=middle;fontFamily=Helvetica;fontSize=11;fontColor=default;endArrow=none;endFill=0;" edge="1" parent="1" source="fztXzovCt0iAuotydGNK-11" target="fztXzovCt0iAuotydGNK-17">
          <mxGeometry relative="1" as="geometry" />
        </mxCell>
        <mxCell id="fztXzovCt0iAuotydGNK-10" style="shape=connector;rounded=0;orthogonalLoop=1;jettySize=auto;html=1;exitX=0.5;exitY=0.5;exitDx=0;exitDy=0;exitPerimeter=0;labelBackgroundColor=default;strokeColor=default;align=center;verticalAlign=middle;fontFamily=Helvetica;fontSize=11;fontColor=default;endArrow=none;endFill=0;" edge="1" parent="1" source="fztXzovCt0iAuotydGNK-11" target="fztXzovCt0iAuotydGNK-18">
          <mxGeometry relative="1" as="geometry" />
        </mxCell>
        <mxCell id="fztXzovCt0iAuotydGNK-11" value="Agente Immobilare" style="shape=umlActor;verticalLabelPosition=bottom;verticalAlign=top;html=1;" vertex="1" parent="1">
          <mxGeometry x="601" y="259" width="30" height="60" as="geometry" />
        </mxCell>
        <mxCell id="fztXzovCt0iAuotydGNK-12" style="edgeStyle=orthogonalEdgeStyle;rounded=0;orthogonalLoop=1;jettySize=auto;html=1;exitX=0.5;exitY=0.5;exitDx=0;exitDy=0;exitPerimeter=0;entryX=1;entryY=0.5;entryDx=0;entryDy=0;endArrow=none;endFill=0;" edge="1" parent="1" source="fztXzovCt0iAuotydGNK-14" target="fztXzovCt0iAuotydGNK-15">
          <mxGeometry relative="1" as="geometry" />
        </mxCell>
        <mxCell id="fztXzovCt0iAuotydGNK-13" style="edgeStyle=orthogonalEdgeStyle;shape=connector;rounded=0;orthogonalLoop=1;jettySize=auto;html=1;exitX=0.5;exitY=0;exitDx=0;exitDy=0;exitPerimeter=0;labelBackgroundColor=default;strokeColor=default;align=center;verticalAlign=middle;fontFamily=Helvetica;fontSize=11;fontColor=default;endArrow=block;endFill=0;endSize=12;" edge="1" parent="1" source="fztXzovCt0iAuotydGNK-14">
          <mxGeometry relative="1" as="geometry">
            <mxPoint x="616" y="341" as="targetPoint" />
          </mxGeometry>
        </mxCell>
        <mxCell id="fztXzovCt0iAuotydGNK-14" value="Gestore Immobilare" style="shape=umlActor;verticalLabelPosition=bottom;verticalAlign=top;html=1;" vertex="1" parent="1">
          <mxGeometry x="601" y="434" width="30" height="60" as="geometry" />
        </mxCell>
        <mxCell id="fztXzovCt0iAuotydGNK-15" value="Registra account&lt;br&gt;agente immobilare" style="ellipse;html=1;whiteSpace=wrap;" vertex="1" parent="1">
          <mxGeometry x="343" y="441" width="132" height="46" as="geometry" />
        </mxCell>
        <mxCell id="fztXzovCt0iAuotydGNK-16" value="Propone Offerta per Immobile" style="ellipse;html=1;whiteSpace=wrap;" vertex="1" parent="1">
          <mxGeometry x="970" y="378.75" width="132" height="46" as="geometry" />
        </mxCell>
        <mxCell id="fztXzovCt0iAuotydGNK-17" value="Aggiunge Inserzione&lt;br&gt;Immobile" style="ellipse;html=1;whiteSpace=wrap;" vertex="1" parent="1">
          <mxGeometry x="325" y="329.25" width="132" height="46" as="geometry" />
        </mxCell>
        <mxCell id="fztXzovCt0iAuotydGNK-18" value="Gestisce Offerte" style="ellipse;html=1;whiteSpace=wrap;" vertex="1" parent="1">
          <mxGeometry x="322" y="200" width="132" height="46" as="geometry" />
        </mxCell>
        <mxCell id="fztXzovCt0iAuotydGNK-19" value="Registra account&lt;br&gt;gestione immobilare" style="ellipse;html=1;whiteSpace=wrap;" vertex="1" parent="1">
          <mxGeometry x="346" y="591" width="132" height="46" as="geometry" />
        </mxCell>
        <mxCell id="fztXzovCt0iAuotydGNK-20" style="edgeStyle=orthogonalEdgeStyle;shape=connector;rounded=0;orthogonalLoop=1;jettySize=auto;html=1;exitX=0.5;exitY=0;exitDx=0;exitDy=0;exitPerimeter=0;labelBackgroundColor=default;strokeColor=default;align=center;verticalAlign=middle;fontFamily=Helvetica;fontSize=11;fontColor=default;endArrow=block;endFill=0;endSize=12;" edge="1" parent="1">
          <mxGeometry relative="1" as="geometry">
            <mxPoint x="615.66" y="618" as="sourcePoint" />
            <mxPoint x="615.66" y="517" as="targetPoint" />
          </mxGeometry>
        </mxCell>
        <mxCell id="fztXzovCt0iAuotydGNK-21" value="Cambia password" style="ellipse;html=1;whiteSpace=wrap;" vertex="1" parent="1">
          <mxGeometry x="346" y="649" width="132" height="46" as="geometry" />
        </mxCell>
        <mxCell id="fztXzovCt0iAuotydGNK-22" value="Visualizza Profilo" style="ellipse;html=1;whiteSpace=wrap;" vertex="1" parent="1">
          <mxGeometry x="682" y="-63" width="132" height="46" as="geometry" />
        </mxCell>
        <mxCell id="fztXzovCt0iAuotydGNK-23" value="Modifca Profilo" style="ellipse;html=1;whiteSpace=wrap;" vertex="1" parent="1">
          <mxGeometry x="682" y="-9" width="132" height="46" as="geometry" />
        </mxCell>
        <mxCell id="fztXzovCt0iAuotydGNK-24" value="Geoapify" style="shape=umlActor;verticalLabelPosition=bottom;verticalAlign=top;html=1;" vertex="1" parent="1">
          <mxGeometry x="219" y="322.25" width="30" height="60" as="geometry" />
        </mxCell>
        <mxCell id="fztXzovCt0iAuotydGNK-25" style="edgeStyle=orthogonalEdgeStyle;shape=connector;rounded=0;orthogonalLoop=1;jettySize=auto;html=1;exitX=0;exitY=0.5;exitDx=0;exitDy=0;entryX=0.5;entryY=0.5;entryDx=0;entryDy=0;entryPerimeter=0;labelBackgroundColor=default;strokeColor=default;align=center;verticalAlign=middle;fontFamily=Helvetica;fontSize=11;fontColor=default;endArrow=none;endFill=0;" edge="1" parent="1" source="fztXzovCt0iAuotydGNK-17" target="fztXzovCt0iAuotydGNK-24">
          <mxGeometry relative="1" as="geometry" />
        </mxCell>
        <mxCell id="fztXzovCt0iAuotydGNK-26" value="Ricerca Immobili" style="ellipse;html=1;whiteSpace=wrap;" vertex="1" parent="1">
          <mxGeometry x="1075" y="146.88" width="132" height="46" as="geometry" />
        </mxCell>
        <mxCell id="fztXzovCt0iAuotydGNK-27" value="Visualizza Immobili" style="ellipse;html=1;whiteSpace=wrap;" vertex="1" parent="1">
          <mxGeometry x="1073" y="199.88" width="132" height="46" as="geometry" />
        </mxCell>
        <mxCell id="fztXzovCt0iAuotydGNK-28" style="shape=connector;rounded=0;orthogonalLoop=1;jettySize=auto;html=1;exitX=0.5;exitY=0.5;exitDx=0;exitDy=0;exitPerimeter=0;entryX=0;entryY=0.5;entryDx=0;entryDy=0;labelBackgroundColor=default;strokeColor=default;align=center;verticalAlign=middle;fontFamily=Helvetica;fontSize=11;fontColor=default;endArrow=none;endFill=0;" edge="1" parent="1" source="fztXzovCt0iAuotydGNK-31" target="fztXzovCt0iAuotydGNK-32">
          <mxGeometry relative="1" as="geometry" />
        </mxCell>
        <mxCell id="fztXzovCt0iAuotydGNK-29" style="shape=connector;rounded=0;orthogonalLoop=1;jettySize=auto;html=1;exitX=0.5;exitY=0.5;exitDx=0;exitDy=0;exitPerimeter=0;entryX=0;entryY=0.5;entryDx=0;entryDy=0;labelBackgroundColor=default;strokeColor=default;align=center;verticalAlign=middle;fontFamily=Helvetica;fontSize=11;fontColor=default;endArrow=none;endFill=0;edgeStyle=orthogonalEdgeStyle;" edge="1" parent="1" source="fztXzovCt0iAuotydGNK-31" target="fztXzovCt0iAuotydGNK-26">
          <mxGeometry relative="1" as="geometry" />
        </mxCell>
        <mxCell id="fztXzovCt0iAuotydGNK-30" style="shape=connector;rounded=0;orthogonalLoop=1;jettySize=auto;html=1;exitX=0.5;exitY=0.5;exitDx=0;exitDy=0;exitPerimeter=0;labelBackgroundColor=default;strokeColor=default;align=center;verticalAlign=middle;fontFamily=Helvetica;fontSize=11;fontColor=default;endArrow=none;endFill=0;" edge="1" parent="1" source="fztXzovCt0iAuotydGNK-31" target="fztXzovCt0iAuotydGNK-27">
          <mxGeometry relative="1" as="geometry" />
        </mxCell>
        <mxCell id="fztXzovCt0iAuotydGNK-31" value="Utente Non Registrato" style="shape=umlActor;verticalLabelPosition=bottom;verticalAlign=top;html=1;" vertex="1" parent="1">
          <mxGeometry x="870" y="139.88" width="30" height="60" as="geometry" />
        </mxCell>
        <mxCell id="fztXzovCt0iAuotydGNK-32" value="Effettua Autenticazione" style="ellipse;html=1;whiteSpace=wrap;" vertex="1" parent="1">
          <mxGeometry x="1073" y="91.38" width="132" height="46" as="geometry" />
        </mxCell>
        <mxCell id="fztXzovCt0iAuotydGNK-33" style="edgeStyle=orthogonalEdgeStyle;shape=connector;rounded=0;orthogonalLoop=1;jettySize=auto;html=1;exitX=0;exitY=0.5;exitDx=0;exitDy=0;entryX=1;entryY=0.5;entryDx=0;entryDy=0;labelBackgroundColor=default;strokeColor=default;align=center;verticalAlign=middle;fontFamily=Helvetica;fontSize=11;fontColor=default;endArrow=block;endFill=0;endSize=12;" edge="1" parent="1" source="fztXzovCt0iAuotydGNK-34" target="fztXzovCt0iAuotydGNK-32">
          <mxGeometry relative="1" as="geometry" />
        </mxCell>
        <mxCell id="fztXzovCt0iAuotydGNK-34" value="Effettua Autenticazione&amp;nbsp;&lt;div&gt;con Google&lt;/div&gt;" style="ellipse;html=1;whiteSpace=wrap;" vertex="1" parent="1">
          <mxGeometry x="1286" y="60.379999999999995" width="159" height="46" as="geometry" />
        </mxCell>
        <mxCell id="fztXzovCt0iAuotydGNK-35" style="edgeStyle=orthogonalEdgeStyle;shape=connector;rounded=0;orthogonalLoop=1;jettySize=auto;html=1;exitX=0;exitY=0.5;exitDx=0;exitDy=0;entryX=1;entryY=0.5;entryDx=0;entryDy=0;labelBackgroundColor=default;strokeColor=default;align=center;verticalAlign=middle;fontFamily=Helvetica;fontSize=11;fontColor=default;endArrow=block;endFill=0;endSize=12;" edge="1" parent="1" source="fztXzovCt0iAuotydGNK-36" target="fztXzovCt0iAuotydGNK-32">
          <mxGeometry relative="1" as="geometry" />
        </mxCell>
        <mxCell id="fztXzovCt0iAuotydGNK-36" value="Effettua Autenticazione&amp;nbsp;&lt;div&gt;con credenziali&lt;/div&gt;" style="ellipse;html=1;whiteSpace=wrap;" vertex="1" parent="1">
          <mxGeometry x="1286" y="129.38" width="158" height="46" as="geometry" />
        </mxCell>
        <mxCell id="fztXzovCt0iAuotydGNK-37" value="Google" style="shape=umlActor;verticalLabelPosition=bottom;verticalAlign=top;html=1;" vertex="1" parent="1">
          <mxGeometry x="1523" y="53.379999999999995" width="30" height="60" as="geometry" />
        </mxCell>
        <mxCell id="fztXzovCt0iAuotydGNK-38" style="edgeStyle=orthogonalEdgeStyle;shape=connector;rounded=0;orthogonalLoop=1;jettySize=auto;html=1;exitX=1;exitY=0.5;exitDx=0;exitDy=0;entryX=0.5;entryY=0.5;entryDx=0;entryDy=0;entryPerimeter=0;labelBackgroundColor=default;strokeColor=default;align=center;verticalAlign=middle;fontFamily=Helvetica;fontSize=11;fontColor=default;endArrow=none;endFill=0;" edge="1" parent="1" source="fztXzovCt0iAuotydGNK-34" target="fztXzovCt0iAuotydGNK-37">
          <mxGeometry relative="1" as="geometry" />
        </mxCell>
        <mxCell id="fztXzovCt0iAuotydGNK-39" style="shape=connector;rounded=0;orthogonalLoop=1;jettySize=auto;html=1;labelBackgroundColor=default;strokeColor=default;align=center;verticalAlign=middle;fontFamily=Helvetica;fontSize=11;fontColor=default;endArrow=block;endFill=0;endSize=12;exitX=0.5;exitY=0;exitDx=0;exitDy=0;exitPerimeter=0;" edge="1" parent="1" source="fztXzovCt0iAuotydGNK-11">
          <mxGeometry relative="1" as="geometry">
            <mxPoint x="616" y="40" as="targetPoint" />
          </mxGeometry>
        </mxCell>
        <mxCell id="fztXzovCt0iAuotydGNK-40" value="" style="endArrow=none;html=1;rounded=0;exitX=0.5;exitY=0.5;exitDx=0;exitDy=0;exitPerimeter=0;entryX=0;entryY=1;entryDx=0;entryDy=0;" edge="1" parent="1" source="fztXzovCt0iAuotydGNK-48" target="fztXzovCt0iAuotydGNK-41">
          <mxGeometry width="50" height="50" relative="1" as="geometry">
            <mxPoint x="851" y="676.63" as="sourcePoint" />
            <mxPoint x="997" y="654.63" as="targetPoint" />
          </mxGeometry>
        </mxCell>
        <mxCell id="fztXzovCt0iAuotydGNK-41" value="Visualizza storico&amp;nbsp;&lt;div&gt;offerte proposte&lt;/div&gt;" style="ellipse;html=1;whiteSpace=wrap;" vertex="1" parent="1">
          <mxGeometry x="950" y="325.75" width="140.5" height="53" as="geometry" />
        </mxCell>
        <mxCell id="fztXzovCt0iAuotydGNK-42" value="Inserisce Offerte&amp;nbsp;&lt;div&gt;Esterne&lt;/div&gt;" style="ellipse;html=1;whiteSpace=wrap;" vertex="1" parent="1">
          <mxGeometry x="319" y="266" width="138" height="46" as="geometry" />
        </mxCell>
        <mxCell id="fztXzovCt0iAuotydGNK-43" value="" style="endArrow=none;html=1;rounded=0;exitX=1;exitY=0.5;exitDx=0;exitDy=0;entryX=0.5;entryY=0.5;entryDx=0;entryDy=0;entryPerimeter=0;" edge="1" parent="1" source="fztXzovCt0iAuotydGNK-42" target="fztXzovCt0iAuotydGNK-11">
          <mxGeometry width="50" height="50" relative="1" as="geometry">
            <mxPoint x="500" y="344" as="sourcePoint" />
            <mxPoint x="550" y="294" as="targetPoint" />
          </mxGeometry>
        </mxCell>
        <mxCell id="fztXzovCt0iAuotydGNK-44" style="edgeStyle=orthogonalEdgeStyle;shape=connector;rounded=0;orthogonalLoop=1;jettySize=auto;html=1;exitX=1;exitY=0.5;exitDx=0;exitDy=0;entryX=0;entryY=0.5;entryDx=0;entryDy=0;labelBackgroundColor=default;strokeColor=default;align=center;verticalAlign=middle;fontFamily=Helvetica;fontSize=11;fontColor=default;endArrow=block;endFill=0;endSize=12;" edge="1" parent="1" source="fztXzovCt0iAuotydGNK-45" target="fztXzovCt0iAuotydGNK-18">
          <mxGeometry relative="1" as="geometry">
            <mxPoint x="-56" y="302.25" as="targetPoint" />
          </mxGeometry>
        </mxCell>
        <mxCell id="fztXzovCt0iAuotydGNK-45" value="Accetta/Rifiuta Offerte" style="ellipse;html=1;whiteSpace=wrap;" vertex="1" parent="1">
          <mxGeometry x="26" y="200" width="159" height="46" as="geometry" />
        </mxCell>
        <mxCell id="fztXzovCt0iAuotydGNK-46" style="edgeStyle=orthogonalEdgeStyle;shape=connector;rounded=0;orthogonalLoop=1;jettySize=auto;html=1;exitX=1;exitY=0.5;exitDx=0;exitDy=0;entryX=0;entryY=0.5;entryDx=0;entryDy=0;labelBackgroundColor=default;strokeColor=default;align=center;verticalAlign=middle;fontFamily=Helvetica;fontSize=11;fontColor=default;endArrow=block;endFill=0;endSize=12;" edge="1" parent="1" source="fztXzovCt0iAuotydGNK-47" target="fztXzovCt0iAuotydGNK-18">
          <mxGeometry relative="1" as="geometry">
            <mxPoint x="-56" y="302.25" as="targetPoint" />
          </mxGeometry>
        </mxCell>
        <mxCell id="fztXzovCt0iAuotydGNK-47" value="Visualizza Storico Offerte" style="ellipse;html=1;whiteSpace=wrap;" vertex="1" parent="1">
          <mxGeometry x="26" y="259" width="158" height="46" as="geometry" />
        </mxCell>
        <mxCell id="fztXzovCt0iAuotydGNK-48" value="Utente Online" style="shape=umlActor;verticalLabelPosition=bottom;verticalAlign=top;html=1;" vertex="1" parent="1">
          <mxGeometry x="870" y="399.63" width="30" height="60" as="geometry" />
        </mxCell>
        <mxCell id="fztXzovCt0iAuotydGNK-50" style="shape=connector;rounded=0;orthogonalLoop=1;jettySize=auto;html=1;labelBackgroundColor=default;strokeColor=default;align=center;verticalAlign=middle;fontFamily=Helvetica;fontSize=11;fontColor=default;endArrow=block;endFill=0;endSize=12;exitX=0.25;exitY=0.1;exitDx=0;exitDy=0;exitPerimeter=0;" edge="1" parent="1" source="fztXzovCt0iAuotydGNK-48">
          <mxGeometry relative="1" as="geometry">
            <mxPoint x="660" y="40" as="targetPoint" />
            <mxPoint x="909" y="246" as="sourcePoint" />
          </mxGeometry>
        </mxCell>
        <mxCell id="fztXzovCt0iAuotydGNK-52" value="Visualizza immobili preferiti" style="ellipse;html=1;whiteSpace=wrap;" vertex="1" parent="1">
          <mxGeometry x="970" y="424.75" width="140.5" height="47.25" as="geometry" />
        </mxCell>
        <mxCell id="fztXzovCt0iAuotydGNK-54" value="" style="endArrow=none;html=1;rounded=0;entryX=0;entryY=0.5;entryDx=0;entryDy=0;exitX=0.5;exitY=0.5;exitDx=0;exitDy=0;exitPerimeter=0;" edge="1" parent="1" source="fztXzovCt0iAuotydGNK-48" target="fztXzovCt0iAuotydGNK-52">
          <mxGeometry width="50" height="50" relative="1" as="geometry">
            <mxPoint x="870" y="403.38" as="sourcePoint" />
            <mxPoint x="920" y="353.38" as="targetPoint" />
          </mxGeometry>
        </mxCell>
        <mxCell id="fztXzovCt0iAuotydGNK-55" value="Invia una controproposta" style="ellipse;html=1;whiteSpace=wrap;" vertex="1" parent="1">
          <mxGeometry x="25" y="140" width="159" height="46" as="geometry" />
        </mxCell>
        <mxCell id="fztXzovCt0iAuotydGNK-60" style="edgeStyle=orthogonalEdgeStyle;shape=connector;rounded=0;orthogonalLoop=1;jettySize=auto;html=1;exitX=1;exitY=0.5;exitDx=0;exitDy=0;entryX=0;entryY=0.5;entryDx=0;entryDy=0;labelBackgroundColor=default;strokeColor=default;align=center;verticalAlign=middle;fontFamily=Helvetica;fontSize=11;fontColor=default;endArrow=block;endFill=0;endSize=12;" edge="1" parent="1" source="fztXzovCt0iAuotydGNK-55" target="fztXzovCt0iAuotydGNK-18">
          <mxGeometry relative="1" as="geometry">
            <mxPoint x="291" y="110" as="sourcePoint" />
            <mxPoint x="210" y="141" as="targetPoint" />
          </mxGeometry>
        </mxCell>
        <mxCell id="fztXzovCt0iAuotydGNK-61" value="Salva immobili nei preferiti" style="ellipse;html=1;whiteSpace=wrap;" vertex="1" parent="1">
          <mxGeometry x="950" y="472" width="140" height="58" as="geometry" />
        </mxCell>
        <mxCell id="fztXzovCt0iAuotydGNK-62" value="" style="endArrow=none;html=1;rounded=0;entryX=0;entryY=0;entryDx=0;entryDy=0;exitX=0.5;exitY=0.5;exitDx=0;exitDy=0;exitPerimeter=0;" edge="1" parent="1" source="fztXzovCt0iAuotydGNK-48" target="fztXzovCt0iAuotydGNK-61">
          <mxGeometry width="50" height="50" relative="1" as="geometry">
            <mxPoint x="910" y="410" as="sourcePoint" />
            <mxPoint x="960" y="360" as="targetPoint" />
          </mxGeometry>
        </mxCell>
        <mxCell id="fztXzovCt0iAuotydGNK-63" value="Effettua Login con credenziali aziendali" style="ellipse;html=1;whiteSpace=wrap;" vertex="1" parent="1">
          <mxGeometry x="319" y="137.38" width="132" height="46" as="geometry" />
        </mxCell>
        <mxCell id="fztXzovCt0iAuotydGNK-65" value="" style="endArrow=none;html=1;rounded=0;exitX=0.5;exitY=0.5;exitDx=0;exitDy=0;exitPerimeter=0;entryX=1;entryY=1;entryDx=0;entryDy=0;" edge="1" parent="1" source="fztXzovCt0iAuotydGNK-11" target="fztXzovCt0iAuotydGNK-63">
          <mxGeometry width="50" height="50" relative="1" as="geometry">
            <mxPoint x="640" y="300" as="sourcePoint" />
            <mxPoint x="690" y="250" as="targetPoint" />
          </mxGeometry>
        </mxCell>
      </root>
    </mxGraphModel>
  </diagram>
</mxfile>
